<?xml version="1.0" standalone="no"?>
<!DOCTYPE svg PUBLIC "-//W3C//DTD SVG 20010904//EN"
 "http://www.w3.org/TR/2001/REC-SVG-20010904/DTD/svg10.dtd">
<svg version="1.0" xmlns="http://www.w3.org/2000/svg"
 width="1000.000000pt" height="1000.000000pt" viewBox="0 0 1000.000000 1000.000000"
 preserveAspectRatio="xMidYMid meet">
<metadata>
Created by potrace 1.11, written by Peter Selinger 2001-2013
</metadata>
<g transform="translate(0.000000,1000.000000) scale(0.100000,-0.100000)"
fill="#000000" stroke="none">
<path d="M850 9985 c-428 -92 -747 -412 -834 -837 -14 -70 -16 -470 -16 -4148
0 -3678 2 -4078 16 -4148 88 -427 409 -748 836 -836 70 -14 466 -16 4148 -16
3678 0 4078 2 4148 16 427 88 748 409 836 836 14 70 16 466 16 4148 0 3682 -2
4078 -16 4148 -88 427 -409 748 -836 836 -70 14 -468 16 -4155 15 -3441 0
-4088 -3 -4143 -14z m4535 -1261 c1237 -133 2322 -901 2880 -2039 285 -581
413 -1200 384 -1862 -47 -1090 -551 -2091 -1394 -2770 -848 -683 -1945 -945
-3005 -717 -1077 231 -2008 967 -2505 1979 -354 723 -469 1525 -334 2340 130
781 532 1540 1106 2085 781 742 1816 1097 2868 984z"/>
</g>
</svg>
