<?xml version="1.0" standalone="no"?><!-- Generator: Gravit.io --><svg xmlns="http://www.w3.org/2000/svg" xmlns:xlink="http://www.w3.org/1999/xlink" style="isolation:isolate" viewBox="0 0 600 600" width="600" height="600"><path d=" M 262.013 304.555 C 262.013 329.521 242.483 347.918 218.514 347.918 C 194.545 347.918 175.014 329.521 175.014 304.555 C 175.014 279.413 194.545 261.192 218.514 261.192 C 242.483 261.192 262.013 279.413 262.013 304.555 Z  M 242.971 304.555 C 242.971 288.954 231.652 278.279 218.514 278.279 C 205.376 278.279 194.056 288.954 194.056 304.555 C 194.056 320 205.376 330.831 218.514 330.831 C 231.652 330.831 242.971 319.981 242.971 304.555 Z " fill="rgb(234,67,53)"/><path d=" M 355.856 304.555 C 355.856 329.521 336.325 347.918 312.356 347.918 C 288.387 347.918 268.856 329.521 268.856 304.555 C 268.856 279.433 288.387 261.192 312.356 261.192 C 336.325 261.192 355.856 279.413 355.856 304.555 Z  M 336.814 304.555 C 336.814 288.954 325.494 278.279 312.356 278.279 C 299.218 278.279 287.898 288.954 287.898 304.555 C 287.898 320 299.218 330.831 312.356 330.831 C 325.494 330.831 336.814 319.981 336.814 304.555 Z " fill="rgb(251,188,5)"/><path d=" M 445.788 263.812 L 445.788 341.662 C 445.788 373.686 426.902 386.765 404.575 386.765 C 383.559 386.765 370.91 372.708 366.139 361.213 L 382.718 354.311 C 385.67 361.369 392.904 369.697 404.556 369.697 C 418.847 369.697 427.704 360.88 427.704 344.282 L 427.704 338.045 L 427.039 338.045 C 422.777 343.304 414.566 347.899 404.204 347.899 C 382.523 347.899 362.659 329.013 362.659 304.712 C 362.659 280.234 382.523 261.192 404.204 261.192 C 414.546 261.192 422.757 265.787 427.039 270.889 L 427.704 270.889 L 427.704 263.832 L 445.788 263.832 L 445.788 263.812 Z  M 429.053 304.712 C 429.053 289.443 418.867 278.279 405.905 278.279 C 392.767 278.279 381.76 289.443 381.76 304.712 C 381.76 319.824 392.767 330.831 405.905 330.831 C 418.867 330.831 429.053 319.824 429.053 304.712 Z " fill="rgb(66,133,244)"/><path d=" M 475.602 218.181 L 475.602 345.259 L 457.029 345.259 L 457.029 218.181 L 475.602 218.181 Z " fill="rgb(52,168,83)"/><path d=" M 547.978 318.827 L 562.758 328.681 C 557.988 335.738 546.492 347.899 526.629 347.899 C 501.995 347.899 483.598 328.856 483.598 304.536 C 483.598 278.749 502.152 261.173 524.498 261.173 C 547.001 261.173 558.008 279.081 561.605 288.758 L 563.579 293.685 L 505.612 317.693 C 510.05 326.393 516.952 330.831 526.629 330.831 C 536.326 330.831 543.051 326.061 547.978 318.827 Z  M 502.484 303.226 L 541.233 287.136 C 539.102 281.72 532.69 277.947 525.143 277.947 C 515.466 277.947 501.995 286.491 502.484 303.226 L 502.484 303.226 Z " fill="rgb(234,67,53)"/><path d=" M 104.71 293.275 L 104.71 274.878 L 166.705 274.878 C 167.311 278.084 167.624 281.877 167.624 285.982 C 167.624 299.785 163.851 316.853 151.69 329.013 C 139.862 341.33 124.75 347.899 104.73 347.899 C 67.623 347.899 36.421 317.674 36.421 280.567 C 36.421 243.46 67.623 213.235 104.73 213.235 C 125.258 213.235 139.882 221.29 150.869 231.788 L 137.887 244.77 C 130.009 237.38 119.334 231.632 104.71 231.632 C 77.613 231.632 56.421 253.47 56.421 280.567 C 56.421 307.664 77.613 329.502 104.71 329.502 C 122.286 329.502 132.296 322.444 138.709 316.031 C 143.909 310.831 147.33 303.402 148.679 293.255 L 104.71 293.275 Z " fill="rgb(66,133,244)"/><g transform="matrix(1,0,0,1,137.74,340.918)"><text transform="matrix(1,0,0,1,0,51.305)" style="font-family:&quot;Open Sans&quot;;font-weight:400;font-size:48px;font-style:normal;fill:#938686;stroke:none;">BrandLab</text></g></svg>