<?xml version="1.0" standalone="no"?><!-- Generator: Gravit.io --><svg xmlns="http://www.w3.org/2000/svg" xmlns:xlink="http://www.w3.org/1999/xlink" style="isolation:isolate" viewBox="0 0 600 600" width="600" height="600"><path d=" M 123.24 330 L 123.24 0 L 128.64 0 L 128.64 330 L 123.24 330 Z  M 153.6 277.92 L 153.6 277.92 L 153.6 330 L 148.2 330 L 148.2 269.88 L 153.6 269.88 L 153.12 273.48 L 153.12 273.48 Q 161.64 269.04 170.7 269.04 L 170.7 269.04 L 170.7 269.04 Q 179.76 269.04 185.04 274.92 L 185.04 274.92 L 185.04 274.92 Q 195.6 268.92 204.72 268.92 L 204.72 268.92 L 204.72 268.92 Q 213.24 268.92 218.16 274.44 L 218.16 274.44 L 218.16 274.44 Q 223.08 279.96 223.08 288.48 L 223.08 288.48 L 223.08 330 L 217.8 330 L 217.8 288.84 L 217.8 288.84 Q 217.8 283.08 215.4 279.36 L 215.4 279.36 L 215.4 279.36 Q 211.56 273.6 203.16 273.6 L 203.16 273.6 L 203.16 273.6 Q 197.76 273.6 192.48 276.12 L 192.48 276.12 L 187.44 278.64 L 187.44 278.64 Q 189.24 282.12 189.24 288.96 L 189.24 288.96 L 189.24 330 L 183.96 330 L 183.96 287.64 L 183.96 287.64 Q 183.96 281.4 180.6 277.92 L 180.6 277.92 L 180.6 277.92 Q 176.76 273.84 168.84 273.84 L 168.84 273.84 L 168.84 273.84 Q 160.92 273.84 153.6 277.92 Z  M 236.64 600 L 236.64 269.88 L 242.04 269.88 L 241.56 276.48 L 241.56 276.48 Q 244.8 272.76 249.48 270.84 L 249.48 270.84 L 249.48 270.84 Q 254.16 268.92 258.6 268.92 L 258.6 268.92 L 258.6 268.92 Q 270 268.92 275.94 275.46 L 275.94 275.46 L 275.94 275.46 Q 281.88 282 281.88 292.32 L 281.88 292.32 L 281.88 308.88 L 281.88 308.88 Q 281.88 319.8 275.7 325.62 L 275.7 325.62 L 275.7 325.62 Q 269.52 331.44 258.6 331.44 L 258.6 331.44 L 258.6 331.44 Q 247.68 331.44 242.04 323.76 L 242.04 323.76 L 242.04 600 L 236.64 600 Z  M 276.48 310.08 L 276.48 310.08 L 276.48 291.84 L 276.48 291.84 Q 276.48 285.24 273.6 280.98 L 273.6 280.98 L 273.6 280.98 Q 270.72 276.72 267.06 275.28 L 267.06 275.28 L 267.06 275.28 Q 263.4 273.84 258.12 273.84 L 258.12 273.84 L 258.12 273.84 Q 252.84 273.84 247.86 277.32 L 247.86 277.32 L 247.86 277.32 Q 242.88 280.8 242.04 288.48 L 242.04 288.48 L 242.04 310.44 L 242.04 310.44 Q 242.04 318.48 246.78 322.5 L 246.78 322.5 L 246.78 322.5 Q 251.52 326.52 258.96 326.52 L 258.96 326.52 L 258.96 326.52 Q 266.4 326.52 271.44 322.38 L 271.44 322.38 L 271.44 322.38 Q 276.48 318.24 276.48 310.08 Z  M 293.4 330 L 293.4 269.88 L 298.8 269.88 L 298.56 274.68 L 298.56 274.68 Q 304.44 268.8 314.4 268.8 L 314.4 268.8 L 314.4 268.8 Q 318.48 268.8 323.4 269.88 L 323.4 269.88 L 321.96 274.92 L 321.96 274.92 Q 318.24 273.6 314.46 273.6 L 314.46 273.6 L 314.46 273.6 Q 310.68 273.6 306.84 274.8 L 306.84 274.8 L 306.84 274.8 Q 298.8 277.08 298.8 282.72 L 298.8 282.72 L 298.8 330 L 293.4 330 Z  M 368.28 321.6 L 370.44 325.8 L 370.44 325.8 Q 361.2 331.44 351.12 331.44 L 351.12 331.44 L 351.12 331.44 Q 330.24 331.44 330.24 313.92 L 330.24 313.92 L 330.24 289.32 L 330.24 289.32 Q 330.24 279.6 336.3 274.2 L 336.3 274.2 L 336.3 274.2 Q 342.36 268.8 352.32 268.8 L 352.32 268.8 L 352.32 268.8 Q 362.28 268.8 367.86 274.14 L 367.86 274.14 L 367.86 274.14 Q 373.44 279.48 373.44 288.96 L 373.44 288.96 L 373.44 303.36 L 335.64 305.4 L 335.64 314.04 L 335.64 314.04 Q 335.64 320.88 340.08 323.82 L 340.08 323.82 L 340.08 323.82 Q 344.52 326.76 350.16 326.76 L 350.16 326.76 L 350.16 326.76 Q 358.8 326.76 368.28 321.6 L 368.28 321.6 Z  M 335.64 289.32 L 335.64 289.32 L 335.64 300.12 L 368.04 298.44 L 368.04 288.36 L 368.04 288.36 Q 368.04 280.32 363.12 276.9 L 363.12 276.9 L 363.12 276.9 Q 358.2 273.48 351.66 273.48 L 351.66 273.48 L 351.66 273.48 Q 345.12 273.48 340.38 277.32 L 340.38 277.32 L 340.38 277.32 Q 335.64 281.16 335.64 289.32 Z  M 416.28 271.08 L 417.84 271.92 L 415.92 276.48 L 415.92 276.48 Q 411.36 273.36 404.64 273.3 L 404.64 273.3 L 404.64 273.3 Q 397.92 273.24 393.6 276.24 L 393.6 276.24 L 393.6 276.24 Q 389.28 279.24 389.28 284.28 L 389.28 284.28 L 389.28 284.28 Q 389.28 289.2 393.42 291.78 L 393.42 291.78 L 393.42 291.78 Q 397.56 294.36 402.78 295.92 L 402.78 295.92 L 402.78 295.92 Q 408 297.48 413.22 299.34 L 413.22 299.34 L 413.22 299.34 Q 418.44 301.2 422.04 305.1 L 422.04 305.1 L 422.04 305.1 Q 425.64 309 425.64 315.6 L 425.64 315.6 L 425.64 315.6 Q 425.64 322.2 420.3 327 L 420.3 327 L 420.3 327 Q 414.96 331.8 404.7 331.8 L 404.7 331.8 L 404.7 331.8 Q 394.44 331.8 388.56 326.88 L 388.56 326.88 L 388.56 326.88 Q 382.68 321.96 382.44 314.76 L 382.44 314.76 L 387.6 314.76 L 387.6 314.76 Q 388.32 320.4 393.06 323.58 L 393.06 323.58 L 393.06 323.58 Q 397.8 326.76 404.34 326.76 L 404.34 326.76 L 404.34 326.76 Q 410.88 326.76 415.56 323.76 L 415.56 323.76 L 415.56 323.76 Q 420.24 320.76 420.24 315.66 L 420.24 315.66 L 420.24 315.66 Q 420.24 310.56 416.76 307.56 L 416.76 307.56 L 416.76 307.56 Q 413.28 304.56 408.12 302.94 L 408.12 302.94 L 408.12 302.94 Q 402.96 301.32 397.8 299.64 L 397.8 299.64 L 397.8 299.64 Q 392.64 297.96 388.68 294.6 L 388.68 294.6 L 388.68 294.6 Q 384 290.64 384 284.7 L 384 284.7 L 384 284.7 Q 384 278.76 388.74 273.6 L 388.74 273.6 L 388.74 273.6 Q 393.48 268.44 404.4 268.44 L 404.4 268.44 L 404.4 268.44 Q 408.12 268.44 411.48 269.34 L 411.48 269.34 L 411.48 269.34 Q 414.84 270.24 416.28 271.08 L 416.28 271.08 Z  M 468 271.08 L 469.56 271.92 L 467.64 276.48 L 467.64 276.48 Q 463.08 273.36 456.36 273.3 L 456.36 273.3 L 456.36 273.3 Q 449.64 273.24 445.32 276.24 L 445.32 276.24 L 445.32 276.24 Q 441 279.24 441 284.28 L 441 284.28 L 441 284.28 Q 441 289.2 445.14 291.78 L 445.14 291.78 L 445.14 291.78 Q 449.28 294.36 454.5 295.92 L 454.5 295.92 L 454.5 295.92 Q 459.72 297.48 464.94 299.34 L 464.94 299.34 L 464.94 299.34 Q 470.16 301.2 473.76 305.1 L 473.76 305.1 L 473.76 305.1 Q 477.36 309 477.36 315.6 L 477.36 315.6 L 477.36 315.6 Q 477.36 322.2 472.02 327 L 472.02 327 L 472.02 327 Q 466.68 331.8 456.42 331.8 L 456.42 331.8 L 456.42 331.8 Q 446.16 331.8 440.28 326.88 L 440.28 326.88 L 440.28 326.88 Q 434.4 321.96 434.16 314.76 L 434.16 314.76 L 439.32 314.76 L 439.32 314.76 Q 440.04 320.4 444.78 323.58 L 444.78 323.58 L 444.78 323.58 Q 449.52 326.76 456.06 326.76 L 456.06 326.76 L 456.06 326.76 Q 462.6 326.76 467.28 323.76 L 467.28 323.76 L 467.28 323.76 Q 471.96 320.76 471.96 315.66 L 471.96 315.66 L 471.96 315.66 Q 471.96 310.56 468.48 307.56 L 468.48 307.56 L 468.48 307.56 Q 465 304.56 459.84 302.94 L 459.84 302.94 L 459.84 302.94 Q 454.68 301.32 449.52 299.64 L 449.52 299.64 L 449.52 299.64 Q 444.36 297.96 440.4 294.6 L 440.4 294.6 L 440.4 294.6 Q 435.72 290.64 435.72 284.7 L 435.72 284.7 L 435.72 284.7 Q 435.72 278.76 440.46 273.6 L 440.46 273.6 L 440.46 273.6 Q 445.2 268.44 456.12 268.44 L 456.12 268.44 L 456.12 268.44 Q 459.84 268.44 463.2 269.34 L 463.2 269.34 L 463.2 269.34 Q 466.56 270.24 468 271.08 L 468 271.08 Z " fill-rule="evenodd" fill="rgb(255,255,255)"/></svg>