<?xml version="1.0" standalone="no"?><!-- Generator: Gravit.io --><svg xmlns="http://www.w3.org/2000/svg" xmlns:xlink="http://www.w3.org/1999/xlink" style="isolation:isolate" viewBox="0 0 600 600" width="600" height="600"><g id="watson-logo"><path d=" M 117.816 288.869 C 117.388 288.869 116.96 288.727 116.675 288.584 L 105.544 282.163 C 104.402 281.592 104.117 280.165 104.688 279.023 C 105.401 277.882 106.828 277.453 107.827 278.167 L 118.958 284.588 C 120.099 285.159 120.385 286.586 119.814 287.728 C 119.529 288.441 118.672 288.869 117.816 288.869 Z  M 137.937 269.748 C 139.078 269.177 139.364 267.75 138.793 266.608 L 132.371 255.335 C 131.801 254.193 130.374 253.908 129.232 254.479 C 128.09 255.05 127.805 256.477 128.376 257.618 L 134.797 268.749 C 135.225 269.462 135.939 269.89 136.795 269.89 C 137.223 270.033 137.651 269.89 137.937 269.748 Z  M 165.05 260.758 L 165.05 247.915 C 165.05 246.63 164.051 245.631 162.766 245.631 C 161.482 245.631 160.483 246.63 160.483 247.915 L 160.483 260.758 C 160.483 262.042 161.482 263.041 162.766 263.041 C 164.051 263.041 165.05 262.042 165.05 260.758 Z  M 190.593 268.891 L 197.014 257.761 C 197.585 256.619 197.3 255.192 196.158 254.622 C 195.017 254.051 193.59 254.336 193.019 255.478 L 186.597 266.608 C 185.884 267.607 186.312 269.034 187.454 269.748 C 187.882 269.89 188.167 270.033 188.595 270.033 C 189.451 270.033 190.165 269.605 190.593 268.891 Z  M 208.858 288.584 L 219.989 282.163 C 221.131 281.592 221.416 280.165 220.845 279.023 C 220.274 277.882 218.847 277.596 217.706 278.167 L 206.575 284.588 C 205.434 285.159 205.148 286.586 205.719 287.728 C 206.147 288.441 206.861 288.869 207.717 288.869 C 208.002 288.869 208.43 288.869 208.858 288.584 Z  M 164.764 271.888 C 160.483 271.888 155.632 272.887 152.778 273.886 C 152.492 274.029 152.207 274.171 152.207 274.314 C 152.207 274.599 152.492 274.742 152.635 274.742 C 152.778 274.742 153.491 274.599 153.919 274.457 C 156.345 274.029 157.629 273.886 161.054 273.886 C 164.907 273.886 168.903 274.599 172.613 276.026 C 157.629 281.734 142.646 302.569 137.509 321.262 C 131.943 315.126 128.519 308.134 128.519 301.712 C 128.519 290.725 137.509 284.16 150.494 284.16 C 150.922 284.16 151.208 284.16 151.493 284.16 C 151.779 284.16 151.779 283.875 151.779 283.732 C 151.779 283.447 151.636 283.304 151.351 283.304 C 150.494 283.161 148.497 282.876 146.356 282.876 C 133.228 282.876 123.809 289.583 123.809 301.712 C 123.809 309.989 128.661 318.836 136.224 326.542 C 135.796 329.111 135.511 331.679 135.511 334.105 C 135.511 335.104 135.654 337.102 135.939 339.1 C 131.373 335.104 127.948 330.252 126.093 325.401 C 125.665 324.402 124.951 322.547 124.808 321.833 C 124.666 321.405 124.523 321.405 124.238 321.405 C 123.952 321.405 123.809 321.548 123.809 321.833 C 123.809 322.118 123.952 322.975 123.952 323.26 C 126.663 336.959 140.22 354.369 162.624 354.369 C 187.311 354.369 204.292 333.963 204.292 312.7 C 204.435 290.582 187.596 271.888 164.764 271.888 Z  M 162.624 349.659 C 154.49 349.659 147.926 346.805 145.072 345.236 C 141.219 343.095 140.077 339.242 140.077 334.533 C 140.077 333.106 140.22 331.679 140.363 330.252 C 150.209 338.529 163.195 344.094 176.323 344.094 C 179.177 344.094 181.888 343.666 184.314 342.953 L 184.314 342.953 C 179.89 346.092 172.185 349.659 162.624 349.659 Z  M 176.18 339.528 C 163.765 339.528 150.637 333.392 141.362 325.115 C 146.213 303.567 165.62 279.594 178.178 279.594 C 179.605 279.594 180.747 279.879 182.459 280.878 C 184.885 282.448 187.168 284.16 189.023 286.015 C 194.731 291.581 200.154 300.999 200.154 312.7 C 200.154 321.833 197.014 328.825 193.732 333.106 C 189.879 337.673 183.173 339.528 176.18 339.528 Z " fill="rgb(86,240,199)"/></g><path d=" M 256.008 253.828 L 256.008 345 L 250.207 345 L 250.207 253.828 L 256.008 253.828 Z  M 303.059 346.172 L 303.059 346.172 L 303.059 346.172 Q 289.172 346.172 281.408 337.617 L 281.408 337.617 L 281.408 337.617 Q 273.645 329.062 273.645 313.652 L 273.645 313.652 L 273.645 313.652 Q 273.645 298.418 281.145 289.248 L 281.145 289.248 L 281.145 289.248 Q 288.645 280.078 301.359 280.078 L 301.359 280.078 L 301.359 280.078 Q 312.609 280.078 319.113 287.93 L 319.113 287.93 L 319.113 287.93 Q 325.617 295.781 325.617 309.258 L 325.617 309.258 L 325.617 313.945 L 279.738 313.945 L 279.738 313.945 Q 279.855 327.07 285.861 333.984 L 285.861 333.984 L 285.861 333.984 Q 291.867 340.898 303.059 340.898 L 303.059 340.898 L 303.059 340.898 Q 308.508 340.898 312.639 340.137 L 312.639 340.137 L 312.639 340.137 Q 316.77 339.375 323.098 336.855 L 323.098 336.855 L 323.098 342.129 L 323.098 342.129 Q 317.707 344.473 313.137 345.322 L 313.137 345.322 L 313.137 345.322 Q 308.566 346.172 303.059 346.172 Z  M 301.359 285.234 L 301.359 285.234 L 301.359 285.234 Q 292.16 285.234 286.594 291.299 L 286.594 291.299 L 286.594 291.299 Q 281.027 297.363 280.09 308.789 L 280.09 308.789 L 319.465 308.789 L 319.465 308.789 Q 319.465 297.715 314.66 291.475 L 314.66 291.475 L 314.66 291.475 Q 309.855 285.234 301.359 285.234 Z  M 363 345 L 357.141 345 L 332.531 281.309 L 338.508 281.309 L 354.973 324.609 L 354.973 324.609 Q 358.254 332.93 359.895 339.141 L 359.895 339.141 L 360.246 339.141 L 360.246 339.141 Q 362.648 331.172 365.168 324.492 L 365.168 324.492 L 381.633 281.309 L 387.609 281.309 L 363 345 Z  M 441.223 345 L 436.945 345 L 435.48 334.922 L 435.012 334.922 L 435.012 334.922 Q 430.207 341.074 425.139 343.623 L 425.139 343.623 L 425.139 343.623 Q 420.07 346.172 413.156 346.172 L 413.156 346.172 L 413.156 346.172 Q 403.781 346.172 398.566 341.367 L 398.566 341.367 L 398.566 341.367 Q 393.352 336.562 393.352 328.066 L 393.352 328.066 L 393.352 328.066 Q 393.352 318.75 401.115 313.594 L 401.115 313.594 L 401.115 313.594 Q 408.879 308.437 423.586 308.145 L 423.586 308.145 L 435.715 307.793 L 435.715 303.574 L 435.715 303.574 Q 435.715 294.492 432.023 289.863 L 432.023 289.863 L 432.023 289.863 Q 428.332 285.234 420.129 285.234 L 420.129 285.234 L 420.129 285.234 Q 411.281 285.234 401.789 290.156 L 401.789 290.156 L 399.621 285.117 L 399.621 285.117 Q 410.109 280.195 420.363 280.195 L 420.363 280.195 L 420.363 280.195 Q 430.852 280.195 436.037 285.645 L 436.037 285.645 L 436.037 285.645 Q 441.223 291.094 441.223 302.637 L 441.223 302.637 L 441.223 345 Z  M 413.508 340.898 L 413.508 340.898 L 413.508 340.898 Q 423.703 340.898 429.592 335.068 L 429.592 335.068 L 429.592 335.068 Q 435.48 329.238 435.48 318.867 L 435.48 318.867 L 435.48 312.598 L 424.348 313.066 L 424.348 313.066 Q 410.93 313.711 405.217 317.256 L 405.217 317.256 L 405.217 317.256 Q 399.504 320.801 399.504 328.301 L 399.504 328.301 L 399.504 328.301 Q 399.504 334.277 403.166 337.588 L 403.166 337.588 L 403.166 337.588 Q 406.828 340.898 413.508 340.898 Z  M 486.926 280.078 L 486.926 280.078 L 486.926 280.078 Q 490.969 280.078 495.598 280.898 L 495.598 280.898 L 494.484 286.465 L 494.484 286.465 Q 490.5 285.469 486.223 285.469 L 486.223 285.469 L 486.223 285.469 Q 478.078 285.469 472.863 292.383 L 472.863 292.383 L 472.863 292.383 Q 467.648 299.297 467.648 309.844 L 467.648 309.844 L 467.648 345 L 461.848 345 L 461.848 281.309 L 466.77 281.309 L 467.355 292.793 L 467.766 292.793 L 467.766 292.793 Q 471.691 285.762 476.145 282.92 L 476.145 282.92 L 476.145 282.92 Q 480.598 280.078 486.926 280.078 Z " fill-rule="evenodd" fill="rgb(86,240,199)"/></svg>