<?xml version="1.0" standalone="no"?><!-- Generator: Gravit.io --><svg xmlns="http://www.w3.org/2000/svg" xmlns:xlink="http://www.w3.org/1999/xlink" style="isolation:isolate" viewBox="0 0 600 600" width="600" height="600"><g style="mix-blend-mode:normal;" opacity="0.8"><g transform="matrix(1,0,0,1,245.072,216)"><text transform="matrix(1,0,0,1,0,113.3)" style="font-family:&quot;Titillium Web&quot;;font-weight:200;font-size:100px;font-style:normal;fill:#ffffff;stroke:none;">Things</text></g></g><g id="cloud"><g id="null"><g id="null"><path d=" M 130.388 344.602 L 159.5 373.714 L 188.612 344.602 L 186.307 342.28 L 161.142 367.445 L 161.142 297.45 L 157.876 297.45 L 157.876 367.445 L 132.711 342.28 L 130.388 344.602 Z " fill="rgb(255,255,255)" fill-opacity="0.8"/><path d=" M 204.644 259.449 C 198.479 249.163 187.355 242.824 175.34 242.824 C 172.58 242.824 169.804 243.173 167.079 243.854 C 161.037 232.992 149.72 226.286 137.234 226.286 C 118.862 226.286 103.826 240.85 103.11 259.222 C 86.379 261.667 73.928 275.952 73.928 293.032 C 73.928 311.875 89.261 327.208 108.087 327.208 L 142.211 327.208 L 142.211 324.013 L 108.104 324.013 C 91.025 324.013 77.124 310.111 77.124 293.032 C 77.124 277.123 89.034 263.868 104.856 262.226 L 106.271 261.894 L 106.271 260.462 C 106.271 243.383 120.172 229.482 137.251 229.482 C 148.952 229.482 159.535 235.996 164.861 246.456 L 165.455 247.626 L 166.73 247.26 C 169.577 246.439 172.476 246.02 175.357 246.02 C 186.604 246.02 196.995 252.149 202.461 262.016 L 203.037 263.064 L 204.19 262.802 C 224.046 258.419 241.876 273.752 241.876 293.032 C 241.876 310.111 227.975 324.013 210.896 324.013 L 176.527 324.013 L 176.527 327.208 L 210.896 327.208 C 229.739 327.208 245.072 311.875 245.072 293.032 C 245.072 272.145 226.072 255.45 204.644 259.449 Z " fill="rgb(255,255,255)" fill-opacity="0.8"/></g></g></g></svg>