<?xml version="1.0" standalone="no"?><!-- Generator: Gravit.io --><svg xmlns="http://www.w3.org/2000/svg" xmlns:xlink="http://www.w3.org/1999/xlink" style="isolation:isolate" viewBox="0 0 600 600" width="600" height="600"><g id="watson-logo"><path d=" M 276.597 341.584 L 262.523 341.584 L 251.576 297.603 L 251.381 297.603 L 240.63 341.584 L 226.165 341.584 L 208.963 276.883 L 223.232 276.883 L 233.592 320.864 L 233.788 320.864 L 245.125 276.883 L 258.418 276.883 L 269.56 321.451 L 269.755 321.451 L 280.311 276.883 L 294.385 276.883 L 276.597 341.584 Z  M 293.994 308.94 C 294.776 297.016 305.527 293.302 315.887 293.302 C 325.269 293.302 336.411 295.453 336.411 306.595 L 336.411 331.029 C 336.411 335.329 336.802 339.63 337.975 341.584 L 325.074 341.584 C 324.683 340.216 324.292 338.652 324.097 337.088 C 319.992 341.389 314.127 342.953 308.263 342.953 C 299.271 342.953 292.234 338.457 292.234 328.879 C 292.43 307.767 323.901 318.909 323.315 308.549 C 323.315 303.076 319.405 302.099 314.909 302.099 C 309.827 302.099 306.895 304.053 306.309 309.136 L 293.994 309.136 L 293.994 308.94 Z  M 323.51 318.518 C 321.36 320.473 316.864 320.473 312.759 321.255 C 308.85 322.037 305.136 323.405 305.136 328.097 C 305.136 332.788 308.85 334.156 312.955 334.156 C 323.119 334.156 323.315 326.337 323.315 323.405 L 323.51 318.518 L 323.51 318.518 Z  M 361.236 294.671 L 370.619 294.671 L 370.619 303.272 L 361.236 303.272 L 361.236 326.337 C 361.236 330.638 362.409 331.811 366.71 331.811 C 368.078 331.811 369.446 331.811 370.619 331.42 L 370.619 341.584 C 368.469 341.975 365.537 341.975 362.996 341.975 C 354.981 341.975 348.14 340.216 348.14 330.833 L 348.14 303.272 L 340.321 303.272 L 340.321 294.671 L 348.14 294.671 L 348.14 280.597 L 361.041 280.597 L 361.236 294.671 L 361.236 294.671 Z  M 387.039 326.142 C 387.039 331.615 391.926 333.961 397.008 333.961 C 400.722 333.961 405.413 332.593 405.413 327.901 C 405.413 323.992 399.94 322.623 390.753 320.669 C 383.129 318.909 375.897 316.564 375.897 308.158 C 375.897 296.235 386.257 293.107 396.226 293.107 C 406.195 293.107 415.773 296.625 416.751 308.158 L 404.436 308.158 C 404.045 303.076 400.331 301.708 395.64 301.708 C 392.708 301.708 388.407 302.099 388.407 306.008 C 388.407 310.7 395.835 311.286 403.068 313.045 C 410.691 314.804 417.924 317.541 417.924 326.142 C 417.924 338.457 407.173 342.562 396.617 342.562 C 385.671 342.562 375.115 338.457 374.724 325.946 L 387.039 326.142 L 387.039 326.142 Z  M 446.854 293.498 C 461.71 293.498 471.092 303.272 471.092 318.128 C 471.092 332.983 461.514 342.757 446.854 342.757 C 432.193 342.757 422.811 332.983 422.811 318.128 C 422.811 303.272 432.193 293.498 446.854 293.498 Z  M 446.854 332.983 C 455.65 332.983 458.387 325.555 458.387 317.932 C 458.387 310.309 455.65 302.881 446.854 302.881 C 438.057 302.881 435.516 310.504 435.516 317.932 C 435.516 325.36 438.057 332.983 446.854 332.983 Z  M 477.152 294.671 L 489.467 294.671 L 489.467 301.121 L 489.662 301.121 C 492.985 295.844 498.654 293.302 504.127 293.302 C 517.81 293.302 521.329 301.121 521.329 312.459 L 521.329 341.193 L 508.428 341.193 L 508.428 315 C 508.428 307.181 506.278 303.467 500.218 303.467 C 493.181 303.467 490.249 307.376 490.249 316.955 L 490.249 341.389 L 477.348 341.389 L 477.152 294.671 L 477.152 294.671 Z " fill="rgb(86,240,199)"/><path d=" M 92.085 288.869 C 91.657 288.869 91.229 288.727 90.943 288.584 L 79.813 282.163 C 78.671 281.592 78.386 280.165 78.956 279.023 C 79.67 277.882 81.097 277.453 82.096 278.167 L 93.226 284.588 C 94.368 285.159 94.653 286.586 94.083 287.728 C 93.797 288.441 92.941 288.869 92.085 288.869 Z  M 112.205 269.748 C 113.347 269.177 113.632 267.75 113.062 266.608 L 106.64 255.335 C 106.069 254.193 104.642 253.908 103.501 254.479 C 102.359 255.05 102.074 256.477 102.645 257.618 L 109.066 268.749 C 109.494 269.462 110.208 269.89 111.064 269.89 C 111.492 270.033 111.92 269.89 112.205 269.748 Z  M 139.318 260.758 L 139.318 247.915 C 139.318 246.63 138.319 245.631 137.035 245.631 C 135.751 245.631 134.752 246.63 134.752 247.915 L 134.752 260.758 C 134.752 262.042 135.751 263.041 137.035 263.041 C 138.319 263.041 139.318 262.042 139.318 260.758 Z  M 164.862 268.891 L 171.283 257.761 C 171.854 256.619 171.568 255.192 170.427 254.622 C 169.285 254.051 167.858 254.336 167.287 255.478 L 160.866 266.608 C 160.153 267.607 160.581 269.034 161.722 269.748 C 162.15 269.89 162.436 270.033 162.864 270.033 C 163.72 270.033 164.433 269.605 164.862 268.891 Z  M 183.127 288.584 L 194.258 282.163 C 195.399 281.592 195.685 280.165 195.114 279.023 C 194.543 277.882 193.116 277.596 191.975 278.167 L 180.844 284.588 C 179.702 285.159 179.417 286.586 179.988 287.728 C 180.416 288.441 181.129 288.869 181.986 288.869 C 182.271 288.869 182.699 288.869 183.127 288.584 Z  M 139.033 271.888 C 134.752 271.888 129.9 272.887 127.046 273.886 C 126.761 274.029 126.475 274.171 126.475 274.314 C 126.475 274.599 126.761 274.742 126.903 274.742 C 127.046 274.742 127.76 274.599 128.188 274.457 C 130.614 274.029 131.898 273.886 135.323 273.886 C 139.176 273.886 143.171 274.599 146.881 276.026 C 131.898 281.734 116.915 302.569 111.777 321.262 C 106.212 315.126 102.787 308.134 102.787 301.712 C 102.787 290.725 111.777 284.16 124.763 284.16 C 125.191 284.16 125.476 284.16 125.762 284.16 C 126.047 284.16 126.047 283.875 126.047 283.732 C 126.047 283.447 125.905 283.304 125.619 283.304 C 124.763 283.161 122.765 282.876 120.625 282.876 C 107.496 282.876 98.078 289.583 98.078 301.712 C 98.078 309.989 102.93 318.836 110.493 326.542 C 110.065 329.111 109.78 331.679 109.78 334.105 C 109.78 335.104 109.922 337.102 110.208 339.1 C 105.641 335.104 102.216 330.252 100.361 325.401 C 99.933 324.402 99.22 322.547 99.077 321.833 C 98.934 321.405 98.792 321.405 98.506 321.405 C 98.221 321.405 98.078 321.548 98.078 321.833 C 98.078 322.118 98.221 322.975 98.221 323.26 C 100.932 336.959 114.489 354.369 136.892 354.369 C 161.579 354.369 178.561 333.963 178.561 312.7 C 178.703 290.582 161.865 271.888 139.033 271.888 Z  M 136.892 349.659 C 128.759 349.659 122.194 346.805 119.34 345.236 C 115.488 343.095 114.346 339.242 114.346 334.533 C 114.346 333.106 114.489 331.679 114.631 330.252 C 124.478 338.529 137.463 344.094 150.592 344.094 C 153.446 344.094 156.157 343.666 158.583 342.953 L 158.583 342.953 C 154.159 346.092 146.453 349.659 136.892 349.659 Z  M 150.449 339.528 C 138.034 339.528 124.906 333.392 115.63 325.115 C 120.482 303.567 139.889 279.594 152.447 279.594 C 153.874 279.594 155.015 279.879 156.728 280.878 C 159.154 282.448 161.437 284.16 163.292 286.015 C 169 291.581 174.422 300.999 174.422 312.7 C 174.422 321.833 171.283 328.825 168.001 333.106 C 164.148 337.673 157.441 339.528 150.449 339.528 Z " fill="rgb(86,240,199)"/></g></svg>