<?xml version="1.0" encoding="UTF-8"?>
<svg width="150px" height="50px" viewBox="0 0 150 50" version="1.1" xmlns="http://www.w3.org/2000/svg" xmlns:xlink="http://www.w3.org/1999/xlink">
  <path fill="#BBB" d="M125,32 C117.5,32 113.833333,29 110.5,26.4 C107.5,24 105,22 100,22 C95,22 92.5,24 89.5,26.4 C86.1666667,29 82.5,32 75,32 C67.5,32 63.8333333,29 60.5,26.4 C57.5,24 55,22 50,22 C45,22 42.5,24 39.5,26.4 C36.1666667,29 32.5,32 25,32 C17.5,32 13.8333333,29 10.5,26.4 C7.5,24 5,22 -5.68434189e-14,22 L-5.68434189e-14,0 C7.5,0 142.5,0 150,0 L150,22 C145,22 142.5,24 139.5,26.4 C136.166667,29 132.5,32 125,32 Z" />
</svg>
